<mxfile host="app.diagrams.net" agent="Mozilla/5.0 (Macintosh; Intel Mac OS X 10_15_7) AppleWebKit/537.36 (KHTML, like Gecko) Chrome/137.0.0.0 Safari/537.36" version="27.1.4">
  <diagram name="Page-1" id="N2ajJZ1ea6--1tt44IG1">
    <mxGraphModel dx="976" dy="629" grid="1" gridSize="10" guides="1" tooltips="1" connect="1" arrows="1" fold="1" page="1" pageScale="1" pageWidth="850" pageHeight="1100" math="0" shadow="0">
      <root>
        <mxCell id="0" />
        <mxCell id="1" parent="0" />
        <mxCell id="E5blHHb87HStQoz74KdZ-1" value="" style="rounded=0;whiteSpace=wrap;html=1;fillColor=none;" parent="1" vertex="1">
          <mxGeometry x="40" y="100" width="120" height="420" as="geometry" />
        </mxCell>
        <mxCell id="E5blHHb87HStQoz74KdZ-2" value="&lt;font style=&quot;font-size: 24px;&quot;&gt;Source&lt;/font&gt;" style="rounded=0;whiteSpace=wrap;html=1;fillColor=default;strokeColor=none;" parent="1" vertex="1">
          <mxGeometry x="55" y="90" width="90" height="20" as="geometry" />
        </mxCell>
        <mxCell id="E5blHHb87HStQoz74KdZ-3" value="" style="rounded=0;whiteSpace=wrap;html=1;fillColor=none;" parent="1" vertex="1">
          <mxGeometry x="230" y="100" width="410" height="420" as="geometry" />
        </mxCell>
        <mxCell id="E5blHHb87HStQoz74KdZ-4" value="" style="rounded=0;whiteSpace=wrap;html=1;fillColor=none;" parent="1" vertex="1">
          <mxGeometry x="700" y="100" width="120" height="420" as="geometry" />
        </mxCell>
        <mxCell id="E5blHHb87HStQoz74KdZ-6" value="&lt;font style=&quot;font-size: 24px;&quot;&gt;Consume&lt;/font&gt;" style="rounded=0;whiteSpace=wrap;html=1;fillColor=default;strokeColor=none;" parent="1" vertex="1">
          <mxGeometry x="707.5" y="90" width="105" height="20" as="geometry" />
        </mxCell>
        <mxCell id="E5blHHb87HStQoz74KdZ-7" value="&lt;font style=&quot;font-size: 24px;&quot;&gt;Data Warehouse&lt;/font&gt;" style="rounded=0;whiteSpace=wrap;html=1;fillColor=default;strokeColor=none;" parent="1" vertex="1">
          <mxGeometry x="325" y="90" width="200" height="20" as="geometry" />
        </mxCell>
        <mxCell id="E5blHHb87HStQoz74KdZ-8" value="Bronze Layer" style="rounded=0;whiteSpace=wrap;html=1;fillColor=#fad7ac;strokeColor=#b46504;" parent="1" vertex="1">
          <mxGeometry x="240" y="120" width="120" height="30" as="geometry" />
        </mxCell>
        <mxCell id="E5blHHb87HStQoz74KdZ-9" value="" style="rounded=0;whiteSpace=wrap;html=1;fillColor=none;strokeColor=#b46504;" parent="1" vertex="1">
          <mxGeometry x="240" y="160" width="120" height="350" as="geometry" />
        </mxCell>
        <mxCell id="E5blHHb87HStQoz74KdZ-10" value="Silver&amp;nbsp;Layer" style="rounded=0;whiteSpace=wrap;html=1;fillColor=#f5f5f5;strokeColor=#666666;gradientColor=#b3b3b3;" parent="1" vertex="1">
          <mxGeometry x="380" y="120" width="120" height="30" as="geometry" />
        </mxCell>
        <mxCell id="E5blHHb87HStQoz74KdZ-11" value="" style="rounded=0;whiteSpace=wrap;html=1;fillColor=none;strokeColor=#666666;gradientColor=#b3b3b3;" parent="1" vertex="1">
          <mxGeometry x="380" y="160" width="120" height="350" as="geometry" />
        </mxCell>
        <mxCell id="E5blHHb87HStQoz74KdZ-12" value="Gold Layer" style="rounded=0;whiteSpace=wrap;html=1;fillColor=#ffcd28;strokeColor=#d79b00;gradientColor=#ffa500;" parent="1" vertex="1">
          <mxGeometry x="510" y="120" width="120" height="30" as="geometry" />
        </mxCell>
        <mxCell id="E5blHHb87HStQoz74KdZ-13" value="" style="rounded=0;whiteSpace=wrap;html=1;fillColor=none;strokeColor=#36393d;" parent="1" vertex="1">
          <mxGeometry x="510" y="160" width="120" height="350" as="geometry" />
        </mxCell>
      </root>
    </mxGraphModel>
  </diagram>
</mxfile>
